<svg xmlns="http://www.w3.org/2000/svg" width="224" height="64" viewBox="0 0 224 64"><defs><style>.a{fill:#fff;}.b{isolation:isolate;}.c{fill:#64717d;}.d{fill:#dd156b;}.e{fill:#cf0059;}</style></defs><g transform="translate(-568 -624)"><rect class="a" width="224" height="64" transform="translate(568 624)"/><g transform="translate(341.428 164.218)"><g class="b"><path class="c" d="M308.839,506.944V479.309h16.089v5.11H314.9v6.474h9.313V496H314.9v5.83h10.6v5.111Z"/><path class="c" d="M338.139,501.833h12.417v5.111H328.75l12.721-22.525H330.114v-5.11h20.745Z"/><path class="c" d="M376.789,507.4c-8.4,0-14.121-5.565-14.121-14.423a13.747,13.747,0,0,1,14.008-14.121,12.824,12.824,0,0,1,9.956,4.089l-3.407,3.975a8.842,8.842,0,0,0-6.549-2.764c-4.733,0-7.761,3.748-7.761,8.821,0,5.679,2.764,9.124,7.874,9.124,3.483,0,5.187-1.477,6.966-3.142l3.483,3.975A13.185,13.185,0,0,1,376.789,507.4Z"/><path class="c" d="M400.79,506.944V505.7a7.939,7.939,0,0,1-5.641,1.7c-3.143,0-5.906-1.968-5.906-5.072,0-5.073,6.246-6.057,11.547-6.284v-.568c0-1.136-.758-1.515-2.423-1.515a12.392,12.392,0,0,0-5.83,1.4l-1.818-3.521a16.068,16.068,0,0,1,7.837-1.665c5.413,0,8.1,1.741,8.1,6.4v10.373Zm0-7.609c-2.5,0-5.3.568-5.3,2.385a1.719,1.719,0,0,0,1.893,1.514,4.68,4.68,0,0,0,3.408-1.173Z"/><path class="c" d="M421.5,496.685a3.833,3.833,0,0,0-2.612-1.022c-1.893,0-2.688,1.514-2.688,3.255v8.026h-5.867V490.628H416.2v2.158a5.03,5.03,0,0,1,4.24-2.612,5.236,5.236,0,0,1,3.937,1.552Z"/><path class="c" d="M433.117,506.944c-3.294,0-5.452-2.536-5.452-5.981v-5.982h-2.044v-4.353h2.044v-6.776h5.868v6.776H436.3v4.353h-2.764V499.9c0,1.249.644,2.12,1.818,2.12h1.438v4.921Z"/></g><g class="b"><path class="c" d="M310.469,516.749a2.527,2.527,0,0,1-1.629-.576l.51-.772a1.864,1.864,0,0,0,1.065.424c.293,0,.586-.119.586-.391,0-.315-.282-.478-.673-.673-.587-.283-1.369-.587-1.369-1.5a1.4,1.4,0,0,1,1.5-1.271,2.558,2.558,0,0,1,1.456.4l-.424.815a1.834,1.834,0,0,0-.988-.315c-.239,0-.511.065-.511.348,0,.239.326.391.728.586.587.294,1.315.674,1.315,1.554A1.444,1.444,0,0,1,310.469,516.749Z"/><path class="c" d="M315.988,516.64v-2.748c0-.663-.391-.946-.825-.946-.565,0-1.054.435-1.054,1.271v2.423h-1.032v-7.931h1.032v3.955a1.515,1.515,0,0,1,1.26-.674,1.556,1.556,0,0,1,1.652,1.706v2.944Z"/><path class="c" d="M320.247,516.771a2.247,2.247,0,0,1-2.3-2.423,2.314,2.314,0,1,1,4.628-.044A2.335,2.335,0,0,1,320.247,516.771Zm-.022-3.825a1.267,1.267,0,0,0-1.228,1.4c0,.9.456,1.466,1.217,1.466.923,0,1.3-.629,1.3-1.444A1.265,1.265,0,0,0,320.225,512.946Z"/><path class="c" d="M325.917,516.771a1.552,1.552,0,0,1-1.282-.62v2.434H323.6v-6.464h1.032v.51a1.541,1.541,0,0,1,1.282-.641,2.21,2.21,0,0,1,2,2.423A2.136,2.136,0,0,1,325.917,516.771Zm-.2-3.825a1.317,1.317,0,0,0-1.174,1.456,1.293,1.293,0,0,0,1.163,1.412c.738,0,1.151-.7,1.151-1.444S326.449,512.946,325.722,512.946Z"/><path class="c" d="M331.262,516.771a1.553,1.553,0,0,1-1.282-.62v2.434h-1.032v-6.464h1.032v.51a1.541,1.541,0,0,1,1.282-.641,2.209,2.209,0,0,1,2,2.423A2.135,2.135,0,0,1,331.262,516.771Zm-.2-3.825a1.317,1.317,0,0,0-1.173,1.456,1.292,1.292,0,0,0,1.162,1.412c.739,0,1.152-.7,1.152-1.444S331.8,512.946,331.067,512.946Z"/><path class="c" d="M334.293,511.088v-1.249h1.032v1.249Zm0,5.552v-4.519h1.032v4.519Z"/><path class="c" d="M339.573,516.64v-2.748c0-.555-.271-.946-.858-.946a1.127,1.127,0,0,0-1.054,1.261v2.433h-1.032v-4.519h1.032v.543a1.5,1.5,0,0,1,1.282-.674,1.558,1.558,0,0,1,1.662,1.706v2.944Z"/><path class="c" d="M343.6,518.693a2.742,2.742,0,0,1-1.771-.532l.51-.761a2.008,2.008,0,0,0,1.217.37c.652,0,1.249-.283,1.249-.913v-.706a1.494,1.494,0,0,1-1.282.62,2.106,2.106,0,0,1-2-2.326,2.241,2.241,0,0,1,2-2.455,1.541,1.541,0,0,1,1.282.641v-.51h1.032V516.6C345.841,518.183,344.809,518.693,343.6,518.693Zm.129-5.747c-.738,0-1.151.685-1.151,1.434s.413,1.434,1.141,1.434a1.3,1.3,0,0,0,1.173-1.434A1.314,1.314,0,0,0,343.733,512.946Z"/><path class="c" d="M350.578,518.693a2.743,2.743,0,0,1-1.771-.532l.51-.761a2.008,2.008,0,0,0,1.217.37c.653,0,1.25-.283,1.25-.913v-.706a1.5,1.5,0,0,1-1.282.62,2.106,2.106,0,0,1-2-2.326,2.241,2.241,0,0,1,2-2.455,1.541,1.541,0,0,1,1.282.641v-.51h1.032V516.6C352.816,518.183,351.784,518.693,350.578,518.693Zm.13-5.747c-.738,0-1.151.685-1.151,1.434s.413,1.434,1.14,1.434a1.3,1.3,0,0,0,1.174-1.434A1.314,1.314,0,0,0,350.708,512.946Z"/><path class="c" d="M356.792,513.2a1.078,1.078,0,0,0-.652-.228c-.576,0-.989.511-.989,1.38v2.292h-1.032v-4.519h1.032v.543a1.475,1.475,0,0,1,1.217-.674,1.3,1.3,0,0,1,.891.337Z"/><path class="c" d="M359.833,516.771a2.247,2.247,0,0,1-2.3-2.423,2.314,2.314,0,1,1,4.628-.044A2.335,2.335,0,0,1,359.833,516.771Zm-.021-3.825a1.267,1.267,0,0,0-1.228,1.4c0,.9.456,1.466,1.217,1.466.923,0,1.3-.629,1.3-1.444A1.265,1.265,0,0,0,359.812,512.946Z"/><path class="c" d="M365.287,516.771a2.223,2.223,0,0,1-2.369-2.391,2.3,2.3,0,0,1,2.282-2.39,2.413,2.413,0,0,1,2.01,1.054l-.75.565a1.528,1.528,0,0,0-1.249-.663,1.314,1.314,0,0,0-1.239,1.391c0,.945.522,1.477,1.3,1.477a1.712,1.712,0,0,0,1.314-.706l.707.565A2.6,2.6,0,0,1,365.287,516.771Z"/><path class="c" d="M368.948,514.511a1.3,1.3,0,0,0,1.336,1.3,2.23,2.23,0,0,0,1.51-.543l.631.652a3.085,3.085,0,0,1-2.152.848,2.395,2.395,0,1,1,2.227-2.26Zm1.239-1.6a1.157,1.157,0,0,0-1.2.815h2.391A1.175,1.175,0,0,0,370.187,512.914Z"/><path class="c" d="M376.184,513.2a1.081,1.081,0,0,0-.653-.228c-.575,0-.988.511-.988,1.38v2.292h-1.032v-4.519h1.032v.543a1.475,1.475,0,0,1,1.217-.674,1.3,1.3,0,0,1,.89.337Z"/><path class="c" d="M377.356,511.088v-1.249h1.032v1.249Zm0,5.552v-4.519h1.032v4.519Z"/><path class="c" d="M380.452,514.511a1.3,1.3,0,0,0,1.337,1.3,2.231,2.231,0,0,0,1.51-.543l.63.652a3.08,3.08,0,0,1-2.151.848,2.395,2.395,0,1,1,2.227-2.26Zm1.239-1.6a1.155,1.155,0,0,0-1.2.815h2.39A1.174,1.174,0,0,0,381.691,512.914Z"/><path class="c" d="M386.362,516.749a2.532,2.532,0,0,1-1.63-.576l.511-.772a1.867,1.867,0,0,0,1.065.424c.294,0,.587-.119.587-.391,0-.315-.283-.478-.674-.673-.587-.283-1.369-.587-1.369-1.5a1.4,1.4,0,0,1,1.5-1.271,2.557,2.557,0,0,1,1.455.4l-.423.815a1.84,1.84,0,0,0-.989-.315c-.239,0-.511.065-.511.348,0,.239.326.391.728.586.587.294,1.315.674,1.315,1.554A1.444,1.444,0,0,1,386.362,516.749Z"/><path class="c" d="M389.165,518.215h-.652a4.075,4.075,0,0,0,.293-1.347v-1.423h1.141v.826A3.6,3.6,0,0,1,389.165,518.215Z"/><path class="c" d="M398.367,516.64v-2.89a.729.729,0,0,0-.793-.8.991.991,0,0,0-1,1v2.694h-1.032v-2.89a.744.744,0,0,0-.815-.8.975.975,0,0,0-.977,1.011v2.683h-1.033v-4.519h1.033v.434a1.571,1.571,0,0,1,1.194-.565,1.528,1.528,0,0,1,1.424.7,1.883,1.883,0,0,1,1.455-.7,1.453,1.453,0,0,1,1.576,1.662v2.988Z"/><path class="c" d="M403.375,516.64v-.326a2.227,2.227,0,0,1-1.413.457,1.5,1.5,0,0,1-1.694-1.521c0-1.065,1.064-1.652,2.455-1.652h.673c0-.543-.228-.739-.9-.739a3.331,3.331,0,0,0-1.391.25l-.359-.771a3.605,3.605,0,0,1,1.63-.348c1.26,0,2.032.369,2.032,1.347v3.3Zm0-2.205h-.294c-1.173,0-1.76.239-1.76.815,0,.434.489.608.924.608a1.714,1.714,0,0,0,1.13-.358Z"/><path class="c" d="M408.611,516.64v-.5a1.537,1.537,0,0,1-1.282.63,2.21,2.21,0,0,1-2-2.423,2.136,2.136,0,0,1,2-2.358,1.556,1.556,0,0,1,1.282.609v-3.89h1.032v7.931Zm-1.076-3.694c-.738,0-1.151.7-1.151,1.445s.413,1.423,1.14,1.423a1.31,1.31,0,0,0,1.174-1.456A1.294,1.294,0,0,0,407.535,512.946Z"/><path class="c" d="M411.707,514.511a1.3,1.3,0,0,0,1.336,1.3,2.23,2.23,0,0,0,1.51-.543l.631.652a3.085,3.085,0,0,1-2.152.848,2.395,2.395,0,1,1,2.227-2.26Zm1.238-1.6a1.156,1.156,0,0,0-1.2.815h2.391A1.176,1.176,0,0,0,412.945,512.914Z"/><path class="c" d="M418.659,514.511a1.3,1.3,0,0,0,1.337,1.3,2.231,2.231,0,0,0,1.51-.543l.63.652a3.08,3.08,0,0,1-2.151.848,2.395,2.395,0,1,1,2.227-2.26Zm1.239-1.6a1.156,1.156,0,0,0-1.2.815h2.39A1.174,1.174,0,0,0,419.9,512.914Z"/><path class="c" d="M426,516.64v-.326a2.225,2.225,0,0,1-1.413.457,1.5,1.5,0,0,1-1.7-1.521c0-1.065,1.065-1.652,2.456-1.652h.673c0-.543-.228-.739-.9-.739a3.337,3.337,0,0,0-1.391.25l-.358-.771a3.605,3.605,0,0,1,1.63-.348c1.26,0,2.031.369,2.031,1.347v3.3Zm0-2.205h-.294c-1.173,0-1.76.239-1.76.815,0,.434.489.608.923.608A1.715,1.715,0,0,0,426,515.5Z"/><path class="c" d="M429.578,516.749a2.53,2.53,0,0,1-1.63-.576l.511-.772a1.864,1.864,0,0,0,1.064.424c.294,0,.587-.119.587-.391,0-.315-.282-.478-.673-.673-.586-.283-1.369-.587-1.369-1.5a1.4,1.4,0,0,1,1.5-1.271,2.558,2.558,0,0,1,1.456.4l-.423.815a1.845,1.845,0,0,0-.99-.315c-.238,0-.51.065-.51.348,0,.239.326.391.728.586.587.294,1.315.674,1.315,1.554A1.445,1.445,0,0,1,429.578,516.749Z"/><path class="c" d="M434.043,517.444a1.4,1.4,0,0,1-1.434,1.141,2.138,2.138,0,0,1-.728-.1v-.934a1.325,1.325,0,0,0,.445.1c.663,0,.729-.456.892-.923l-1.575-4.606h1.118l1,2.955.065.26a2.237,2.237,0,0,1,.076-.271l.989-2.944h1.1Z"/></g><g class="b"><rect class="d" width="11.718" height="35.052" rx="5.859" transform="translate(289.792 483.532) rotate(19.013)"/><rect class="e" width="11.718" height="35.052" rx="5.859" transform="translate(273.381 483.532) rotate(19.013)"/><rect class="d" width="11.718" height="35.052" rx="5.859" transform="translate(256.969 483.532) rotate(19.013)"/><rect class="d" width="11.718" height="35.052" rx="5.859" transform="translate(234.572 476.717) rotate(-49.685)"/><circle class="d" cx="5.846" cy="5.846" r="5.846" transform="translate(259.544 469.25)"/><circle class="d" cx="5.846" cy="5.846" r="5.846" transform="translate(276.639 469.25)"/><circle class="d" cx="5.846" cy="5.846" r="5.846" transform="translate(293.735 469.25)"/></g></g></g></svg>