<svg xmlns="http://www.w3.org/2000/svg" width="132.62" height="23.126" viewBox="0 0 132.62 23.126"><defs><style>.a{isolation:isolate;}.b{fill:#fff;}</style></defs><g transform="translate(-778 -1037.022)"><g transform="translate(778 1037.022)"><g class="a" transform="translate(36.397 0.625)"><path class="b" d="M308.839,500.091V479.309h12.1v3.843h-7.544v4.869h7v3.843h-7v4.384h7.972v3.844Z" transform="translate(-308.839 -478.967)"/><path class="b" d="M335.811,496.248h9.338v3.844h-16.4l9.567-16.94h-8.541v-3.843h15.6Z" transform="translate(-313.776 -478.967)"/><path class="b" d="M373.287,500.32c-6.32,0-10.619-4.185-10.619-10.847A10.338,10.338,0,0,1,373.2,478.854a9.644,9.644,0,0,1,7.487,3.075l-2.562,2.989a6.65,6.65,0,0,0-4.925-2.079c-3.559,0-5.837,2.819-5.837,6.634,0,4.271,2.079,6.862,5.922,6.862a6.868,6.868,0,0,0,5.239-2.363l2.619,2.989A9.915,9.915,0,0,1,373.287,500.32Z" transform="translate(-322.187 -478.854)"/><path class="b" d="M397.927,502.786v-.939a5.971,5.971,0,0,1-4.242,1.281c-2.364,0-4.441-1.48-4.441-3.814,0-3.815,4.7-4.555,8.684-4.726v-.427c0-.854-.57-1.139-1.822-1.139a9.319,9.319,0,0,0-4.384,1.054l-1.367-2.648a12.083,12.083,0,0,1,5.894-1.252c4.071,0,6.092,1.309,6.092,4.811v7.8Zm0-5.722c-1.879,0-3.987.427-3.987,1.794A1.293,1.293,0,0,0,395.364,500a3.52,3.52,0,0,0,2.563-.882Z" transform="translate(-328.776 -481.661)"/><path class="b" d="M418.727,495.071a2.883,2.883,0,0,0-1.964-.769c-1.424,0-2.021,1.139-2.021,2.448v6.036h-4.412v-12.27h4.412v1.623a3.783,3.783,0,0,1,3.189-1.964,3.937,3.937,0,0,1,2.961,1.167Z" transform="translate(-334.005 -481.661)"/><path class="b" d="M431.258,501.218c-2.477,0-4.1-1.907-4.1-4.5v-4.5h-1.537v-3.274h1.537v-5.1h4.413v5.1h2.079v3.274h-2.079v3.7c0,.939.484,1.594,1.367,1.594h1.081v3.7Z" transform="translate(-337.797 -480.093)"/></g><g class="a" transform="translate(0 0)"><rect class="b" width="5.142" height="15.38" rx="2.571" transform="translate(24.229 6.911) rotate(19.013)"/><rect class="b" width="5.142" height="15.38" rx="2.571" transform="translate(17.028 6.911) rotate(19.013)"/><rect class="b" width="5.142" height="15.38" rx="2.571" transform="translate(9.827 6.911) rotate(19.013)"/><rect class="b" width="5.142" height="15.38" rx="2.571" transform="translate(0 3.921) rotate(-49.685)"/><circle class="b" cx="2.565" cy="2.565" r="2.565" transform="translate(10.957 0.644)"/><circle class="b" cx="2.565" cy="2.565" r="2.565" transform="translate(18.458 0.644)"/><circle class="b" cx="2.565" cy="2.565" r="2.565" transform="translate(25.959 0.644)"/></g></g></g></svg>